<svg width="24" height="24" viewBox="0 0 24 24" fill="none" xmlns="http://www.w3.org/2000/svg">
<path fill-rule="evenodd" clip-rule="evenodd" d="M10.0341 19C10.0946 18.9958 10.11 18.9964 10.1699 18.986C10.3046 18.9628 10.4342 18.9117 10.5485 18.8367C10.6063 18.7988 10.6567 18.7547 10.7071 18.7077L16.7074 12.7074C16.7488 12.6631 16.7604 12.653 16.7971 12.6045C16.8384 12.5501 16.874 12.4915 16.9034 12.4298C17.0316 12.1602 17.0316 11.8403 16.9034 11.5708C16.874 11.5091 16.8384 11.4504 16.7971 11.396C16.7604 11.3476 16.7488 11.3375 16.7074 11.2932L10.7071 5.29291C10.6628 5.25151 10.6526 5.23991 10.6042 5.20321C10.4771 5.10675 10.3271 5.04165 10.1699 5.0145C10.0577 4.9952 9.94231 4.9952 9.83005 5.0145C9.7403 5.03 9.65275 5.0578 9.57049 5.0969C9.25808 5.24546 9.04057 5.55362 9.00517 5.89774C8.99122 6.03374 9.00547 6.17225 9.04682 6.30256C9.08127 6.41111 9.13432 6.51356 9.20313 6.60427C9.23988 6.65272 9.25143 6.66282 9.29283 6.70717L14.586 12.0003L9.29283 17.2934L9.24623 17.3433C9.20798 17.3903 9.19708 17.4013 9.16378 17.4521C9.10132 17.5473 9.05532 17.6531 9.02837 17.7637C9.00682 17.8523 8.99742 17.9437 9.00052 18.0347C9.01232 18.3804 9.20833 18.7027 9.50984 18.8722C9.6091 18.928 9.71785 18.9667 9.83005 18.986C9.88996 18.9964 9.90536 18.9958 9.96586 19C9.98861 19 10.0114 19 10.0341 19Z" fill="#323232"/>
</svg>
