<svg width="33" height="33" viewBox="0 0 33 33" fill="none" xmlns="http://www.w3.org/2000/svg">
<path d="M10.5 13.3125V31.125C10.5 31.6428 10.9197 32.0625 11.4375 32.0625H24.5625C25.0803 32.0625 25.5 31.6428 25.5 31.125V13.3125" stroke="#FFDC00" stroke-width="1.5" stroke-linecap="round" stroke-linejoin="round"/>
<path d="M25.5 18.9375H30.1875C30.7053 18.9375 31.125 18.5178 31.125 18V11.4375C31.125 7.29536 27.7671 3.9375 23.625 3.9375H21.75C21.75 6.00857 20.0711 7.6875 18 7.6875C15.9289 7.6875 14.25 6.00857 14.25 3.9375H12.375C8.23286 3.9375 4.875 7.29536 4.875 11.4375V18C4.875 18.5178 5.29473 18.9375 5.8125 18.9375H10.5" stroke="#FFDC00" stroke-width="1.5" stroke-linecap="round" stroke-linejoin="round"/>
<path d="M18 7.6875V11.4375" stroke="#FFDC00" stroke-width="1.5" stroke-linecap="round" stroke-linejoin="round"/>
<path d="M21.75 15.1875H19.875" stroke="#FFDC00" stroke-width="1.5" stroke-linecap="round" stroke-linejoin="round"/>
<path d="M7.5 10.3125V28.125C7.5 28.6428 7.91973 29.0625 8.4375 29.0625H21.5625C22.0803 29.0625 22.5 28.6428 22.5 28.125V10.3125" stroke="black" stroke-width="1.5" stroke-linecap="round" stroke-linejoin="round"/>
<path d="M22.5 15.9375H27.1875C27.7053 15.9375 28.125 15.5178 28.125 15V8.4375C28.125 4.29536 24.7671 0.9375 20.625 0.9375H18.75C18.75 3.00857 17.0711 4.6875 15 4.6875C12.9289 4.6875 11.25 3.00857 11.25 0.9375H9.375C5.23286 0.9375 1.875 4.29536 1.875 8.4375V15C1.875 15.5178 2.29473 15.9375 2.8125 15.9375H7.5" stroke="black" stroke-width="1.5" stroke-linecap="round" stroke-linejoin="round"/>
<path d="M15 4.6875V8.4375" stroke="black" stroke-width="1.5" stroke-linecap="round" stroke-linejoin="round"/>
<path d="M18.75 12.1875H16.875" stroke="black" stroke-width="1.5" stroke-linecap="round" stroke-linejoin="round"/>
</svg>
