<svg width="31" height="25" viewBox="0 0 31 25" fill="none" xmlns="http://www.w3.org/2000/svg">
  <!-- Yellow offset layer -->
  <path d="M13.2912 12.2913C15.3187 14.1389 18.4196 14.1389 20.4471 12.2913" stroke="#FFDC00" stroke-width="1.5" stroke-linecap="round" stroke-linejoin="round"/>
  <path fill-rule="evenodd" clip-rule="evenodd" d="M28.3188 19.9243H13.7683L8.04358 24.2179V19.9243H5.18119C4.39077 19.9243 3.75 19.2835 3.75 18.4931V4.18119C3.75 3.39077 4.39077 2.75 5.18119 2.75H28.3188C29.1092 2.75 29.75 3.39077 29.75 4.18119V18.4931C29.75 19.2835 29.1092 19.9243 28.3188 19.9243Z" stroke="#FFDC00" stroke-width="1.5" stroke-linecap="round" stroke-linejoin="round"/>
  <!-- Dark layer on top -->
  <path d="M10.2912 10.2913C12.3187 12.1389 15.4196 12.1389 17.4471 10.2913" stroke="#323232" stroke-width="1.5" stroke-linecap="round" stroke-linejoin="round"/>
  <path fill-rule="evenodd" clip-rule="evenodd" d="M25.3188 17.9243H10.7683L5.04358 22.2179V17.9243H2.18119C1.39077 17.9243 0.75 17.2835 0.75 16.4931V2.18119C0.75 1.39077 1.39077 0.75 2.18119 0.75H25.3188C26.1092 0.75 26.75 1.39077 26.75 2.18119V16.4931C26.75 17.2835 26.1092 17.9243 25.3188 17.9243Z" stroke="#323232" stroke-width="1.5" stroke-linecap="round" stroke-linejoin="round"/>
</svg>
