<svg width="31" height="30" viewBox="0 0 31 30" fill="none" xmlns="http://www.w3.org/2000/svg">
<path d="M9.96727 24.1212L4.54545 28.1818V22.7273H2.72727C2.24506 22.7273 1.7826 22.5357 1.44162 22.1947C1.10065 21.8538 0.909088 21.3913 0.909088 20.9091V5.63636C0.909088 5.15415 1.10065 4.69169 1.44162 4.35071C1.7826 4.00973 2.24506 3.81818 2.72727 3.81818H26.3636C26.8459 3.81818 27.3083 4.00973 27.6493 4.35071C27.9903 4.69169 28.1818 5.15415 28.1818 5.63636V11.8182" stroke="black" stroke-width="1.5" stroke-linecap="round" stroke-linejoin="round"/>
<path d="M14.5455 19.4546C14.5455 21.1423 15.2159 22.7609 16.4093 23.9544C17.6028 25.1478 19.2214 25.8182 20.9091 25.8182C22.5969 25.8182 24.2155 25.1478 25.4089 23.9544C26.6023 22.7609 27.2728 21.1423 27.2728 19.4546C27.2728 17.7668 26.6023 16.1482 25.4089 14.9548C24.2155 13.7614 22.5969 13.0909 20.9091 13.0909C19.2214 13.0909 17.6028 13.7614 16.4093 14.9548C15.2159 16.1482 14.5455 17.7668 14.5455 19.4546V19.4546Z" stroke="black" stroke-width="1.5" stroke-linecap="round" stroke-linejoin="round"/>
<path d="M29.9999 28.5454L25.4084 23.9539" stroke="black" stroke-width="1.5" stroke-linecap="round" stroke-linejoin="round"/>
</svg>
