<svg width="32" height="32" viewBox="0 0 32 32" fill="none" xmlns="http://www.w3.org/2000/svg">
<path d="M31.9666 24.1612L31.3898 21.2359C31.158 20.0604 30.587 18.9918 29.7386 18.1456L28.7256 17.1356V13.6932C29.3587 13.443 29.8079 12.8254 29.8079 12.1045C29.8079 11.9099 29.7747 11.7229 29.7145 11.5485C30.4317 11.346 30.9591 10.6861 30.9591 9.90497C30.9591 9.69866 30.9223 9.50078 30.8549 9.31751C31.5206 9.08417 31.9995 8.44985 31.9995 7.7055C31.9995 6.96109 31.5206 6.32684 30.8549 6.09349C30.9223 5.91022 30.9591 5.71234 30.9591 5.50604C30.9591 4.56423 30.1928 3.79812 29.2511 3.79812H25.8282C26.1424 3.41855 26.2935 2.9093 26.2023 2.39199C26.1208 1.92978 25.8627 1.52918 25.4756 1.26388C25.0885 0.998589 24.6216 0.902498 24.1613 0.993314L21.2359 1.57016C20.0603 1.80199 18.9918 2.37301 18.1457 3.22146L17.1357 4.23437H13.6933C13.4431 3.60133 12.8255 3.1521 12.1046 3.1521C11.91 3.1521 11.723 3.18526 11.5486 3.24552C11.3461 2.52827 10.6862 2.00096 9.90509 2.00096C9.69878 2.00096 9.5009 2.03776 9.31763 2.10511C9.08428 1.43939 8.44996 0.960516 7.70561 0.960516C6.96119 0.960516 6.32693 1.43945 6.09358 2.10517C5.91031 2.03782 5.71243 2.00102 5.50613 2.00102C4.56437 2.00102 3.79819 2.76719 3.79819 3.70894V7.13187C3.41868 6.81772 2.90955 6.66664 2.39205 6.75782C1.92985 6.8393 1.52924 7.09738 1.26394 7.48453C0.998645 7.87162 0.902554 8.33843 0.99331 8.79881L1.57028 11.7241C1.80211 12.8997 2.37314 13.9683 3.22153 14.8144L4.23439 15.8244V19.2667C3.60128 19.5169 3.15199 20.1345 3.15199 20.8554C3.15199 21.0501 3.18515 21.237 3.24541 21.4115C2.52816 21.614 2.00084 22.2738 2.00084 23.055C2.00084 23.2613 2.03764 23.4592 2.10499 23.6425C1.43921 23.8758 0.960391 24.5101 0.960391 25.2545C0.960391 25.9989 1.43927 26.6332 2.10499 26.8664C2.03764 27.0497 2.00084 27.2476 2.00084 27.454C2.00084 28.3957 2.76708 29.1619 3.70877 29.1619H7.13173C6.81757 29.5414 6.66643 30.0506 6.75767 30.5679C6.83915 31.0301 7.09723 31.4308 7.48433 31.696C7.7763 31.8961 8.11361 32 8.45936 32C8.57194 32 8.68549 31.9889 8.79868 31.9666L11.7241 31.3897C12.8995 31.1579 13.9682 30.5869 14.8143 29.7385L15.8243 28.7256H19.2668C19.517 29.3587 20.1346 29.808 20.8555 29.808C21.0501 29.808 21.2371 29.7748 21.4115 29.7145C21.614 30.4318 22.274 30.959 23.055 30.959C23.2613 30.959 23.4592 30.9222 23.6425 30.8549C23.8758 31.5207 24.5101 31.9995 25.2545 31.9995C25.9989 31.9995 26.6332 31.5206 26.8665 30.8549C27.0498 30.9222 27.2477 30.959 27.454 30.959C28.3958 30.959 29.1619 30.1928 29.1619 29.2511V25.8283C29.5415 26.1424 30.0505 26.2936 30.568 26.2023C31.0302 26.1208 31.4308 25.8627 31.6961 25.4756C31.9613 25.0886 32.0575 24.6217 31.9666 24.1612ZM13.8127 8.95183V7.29932V5.44681H17.3874C17.5485 5.44681 17.7029 5.38267 17.8167 5.26863L19.0043 4.07766C19.6796 3.40054 20.5323 2.94476 21.4706 2.7598L24.396 2.18295C24.5342 2.15579 24.6742 2.18453 24.7903 2.26413C24.9065 2.34373 24.9839 2.46395 25.0083 2.6026C25.0557 2.87135 24.8853 3.1327 24.6203 3.19769L23.4046 3.49578C23.0212 3.58975 22.7771 3.94247 22.8245 4.3344C22.8718 4.72634 23.1927 5.01086 23.5876 5.01086H29.2513C29.5245 5.01086 29.7468 5.23317 29.7468 5.50634C29.7468 5.75951 29.5559 5.96854 29.3105 5.99789L25.9551 6.00177C25.6203 6.00177 25.3489 6.27318 25.3489 6.60801C25.3489 6.94284 25.6203 7.21426 25.9551 7.21426L30.2918 7.21038C30.5651 7.21038 30.7873 7.43269 30.7873 7.70587C30.7873 7.97904 30.5651 8.20135 30.2918 8.20135H25.9551C25.6203 8.20135 25.3489 8.47277 25.3489 8.8076C25.3489 9.14243 25.6203 9.41385 25.9551 9.41385H29.3107C29.556 9.44331 29.7468 9.65235 29.7468 9.90539C29.7468 10.1786 29.5245 10.4009 29.2513 10.4009H25.9551C25.6203 10.4009 25.3489 10.6723 25.3489 11.0071C25.3489 11.342 25.6203 11.6134 25.9551 11.6134H28.1594C28.4047 11.6428 28.5956 11.8518 28.5956 12.105C28.5956 12.3782 28.3734 12.6004 28.1002 12.6004H21.9778C20.6952 12.6004 19.49 12.1003 18.5844 11.192L17.8168 10.4222C17.7031 10.3082 17.5486 10.244 17.3875 10.244H13.8127V8.95183ZM4.07762 13.9556C3.40043 13.2804 2.94471 12.4276 2.75981 11.4894L2.1829 8.56407C2.15562 8.42591 2.18447 8.28586 2.26407 8.16971C2.34368 8.05355 2.46389 7.97613 2.60254 7.9517C2.8716 7.90441 3.13259 8.07477 3.19758 8.33976L3.49561 9.55535C3.58952 9.93886 3.94248 10.1824 4.33418 10.1355C4.72618 10.0882 5.0107 9.76729 5.0107 9.3725V3.70882C5.0107 3.43564 5.23295 3.21333 5.50619 3.21333C5.7593 3.21333 5.96827 3.40418 5.99774 3.64947L6.00162 7.00498C6.00162 7.33982 6.2731 7.61123 6.60787 7.61123C6.94264 7.61123 7.21412 7.33982 7.21412 7.00498V3.70882C7.21412 3.6719 7.21254 3.6354 7.21024 3.59903V2.66832C7.21024 2.39514 7.43249 2.17289 7.70573 2.17289C7.97897 2.17289 8.20122 2.39514 8.20122 2.66832V3.59909C8.19891 3.6354 8.19734 3.67196 8.19734 3.70888L8.20122 7.00505C8.20122 7.33988 8.4727 7.61129 8.80747 7.61129C9.14224 7.61129 9.41372 7.33988 9.41372 7.00505V3.64947C9.44318 3.40418 9.65222 3.21333 9.90527 3.21333C10.1785 3.21333 10.4008 3.43564 10.4008 3.70882C10.4008 3.70882 10.3983 6.65809 10.4008 6.68016V7.00505C10.4008 7.33988 10.6722 7.61129 11.007 7.61129C11.3418 7.61129 11.6133 7.33988 11.6133 7.00505V4.80061C11.6427 4.55532 11.8518 4.36447 12.1048 4.36447C12.378 4.36447 12.6003 4.58679 12.6003 4.85996V10.9823C12.6003 12.2462 12.0869 13.4831 11.192 14.3756L10.4222 15.1432C10.3081 15.257 10.244 15.4115 10.244 15.5725V19.1473H9.03154V17.5376C9.03154 17.2029 8.76006 16.9314 8.42529 16.9314C8.09052 16.9314 7.81904 17.2029 7.81904 17.5376V19.1473H5.44684V15.5725C5.44684 15.4115 5.38269 15.257 5.26866 15.1432L4.07762 13.9556ZM19.1475 27.5129H15.5726V27.513C15.4116 27.513 15.2571 27.5771 15.1433 27.6911L13.9557 28.8821C13.2804 29.5593 12.4276 30.015 11.4895 30.1999L8.56406 30.7768C8.42583 30.8041 8.28585 30.7753 8.16969 30.6956C8.05353 30.616 7.97612 30.4958 7.95168 30.3571C7.90428 30.0885 8.07475 29.8271 8.33969 29.7622L9.55552 29.4641C9.93892 29.3701 10.1829 29.0174 10.1355 28.6255C10.0882 28.2335 9.76723 27.9491 9.37244 27.9491H3.70883C3.4356 27.9491 3.21334 27.7268 3.21334 27.4536C3.21334 27.2004 3.40437 26.9913 3.64984 26.962L7.00508 26.9582C7.33986 26.9582 7.61134 26.6867 7.61134 26.3519C7.61134 26.0171 7.33986 25.7457 7.00508 25.7457L2.66838 25.7495C2.39515 25.7495 2.17289 25.5272 2.17289 25.254C2.17289 24.9808 2.39515 24.7586 2.66838 24.7586H7.00508C7.33986 24.7586 7.61134 24.4871 7.61134 24.1523C7.61134 23.8176 7.33986 23.5461 7.00508 23.5461H3.64984C3.40437 23.5168 3.21334 23.3077 3.21334 23.0545C3.21334 22.7813 3.4356 22.559 3.70883 22.559H7.00508C7.33986 22.559 7.61134 22.2876 7.61134 21.9528C7.61134 21.618 7.33986 21.3466 7.00508 21.3466H4.801C4.55558 21.3173 4.36455 21.1082 4.36455 20.8549C4.36455 20.5817 4.58681 20.3595 4.85998 20.3595H10.9823C12.2649 20.3595 13.47 20.8597 14.3757 21.7678L15.1433 22.5376C15.2571 22.6517 15.4116 22.7158 15.5726 22.7158H19.1475V27.5129ZM19.166 21.5038H15.8242L15.2343 20.9121C14.2117 19.8867 12.8846 19.2766 11.4562 19.1659V15.8241L12.0479 15.2342C13.0572 14.2277 13.6789 12.8718 13.7932 11.4561H17.1359L17.7258 12.0478C18.7484 13.0732 20.0756 13.6832 21.5039 13.794V17.1358L20.9123 17.7257C19.8868 18.7482 19.2767 20.0754 19.166 21.5038ZM30.6959 24.7901C30.6163 24.9063 30.4961 24.9837 30.3574 25.0082C30.0884 25.0558 29.8273 24.8851 29.7624 24.6201L29.4643 23.4043C29.3703 23.0208 29.017 22.7773 28.6257 22.8243C28.2337 22.8717 27.9493 23.1926 27.9493 23.5874V29.2511C27.9493 29.5243 27.727 29.7465 27.4538 29.7465C27.2006 29.7465 26.9915 29.5555 26.9622 29.31L26.9584 25.9549C26.9584 25.6201 26.6869 25.3486 26.3521 25.3486C26.0174 25.3486 25.7459 25.6201 25.7459 25.9549L25.7497 30.2916C25.7497 30.5648 25.5275 30.787 25.2542 30.787C24.9811 30.787 24.7588 30.5648 24.7588 30.2916V25.9549C24.7588 25.6201 24.4873 25.3486 24.1525 25.3486C23.8178 25.3486 23.5463 25.6201 23.5463 25.9549V29.31C23.517 29.5555 23.3079 29.7465 23.0547 29.7465C22.7814 29.7465 22.5592 29.5243 22.5592 29.2511V25.9549C22.5592 25.6201 22.2877 25.3486 21.9529 25.3486C21.6182 25.3486 21.3467 25.6201 21.3467 25.9549V28.1593C21.3172 28.4046 21.1082 28.5955 20.8551 28.5955C20.5819 28.5955 20.3597 28.3732 20.3597 28.1V25.6608V24.0083V21.9777C20.3597 20.6951 20.8599 19.49 21.768 18.5842L22.5379 17.8166C22.652 17.7029 22.716 17.5484 22.716 17.3873V13.8125H24.008H25.0543V15.6515C25.0543 15.9863 25.3258 16.2577 25.6606 16.2577C25.9954 16.2577 26.2668 15.9863 26.2668 15.6515V13.8125H27.5129V17.3873C27.5129 17.5484 27.5771 17.7029 27.6911 17.8166L28.882 19.0043C29.5593 19.6796 30.015 20.5323 30.1998 21.4705L30.7768 24.3959C30.8043 24.534 30.7755 24.674 30.6959 24.7901Z" fill="#FFDC00" fill-opacity="0.6"/>
<path d="M31.0067 23.2013L30.4298 20.276C30.198 19.1004 29.627 18.0318 28.7786 17.1857L27.7656 16.1757V12.7333C28.3987 12.4831 28.8479 11.8655 28.8479 11.1445C28.8479 10.9499 28.8148 10.763 28.7545 10.5885C29.4717 10.3861 29.9991 9.72616 29.9991 8.94501C29.9991 8.7387 29.9623 8.54082 29.8949 8.35755C30.5606 8.12421 31.0395 7.48989 31.0395 6.74554C31.0395 6.00113 30.5606 5.36688 29.8949 5.13353C29.9623 4.95026 29.9991 4.75238 29.9991 4.54608C29.9991 3.60427 29.2328 2.83816 28.2911 2.83816H24.8682C25.1824 2.45859 25.3335 1.94934 25.2423 1.43203C25.1608 0.969824 24.9027 0.569215 24.5156 0.303921C24.1285 0.0386276 23.6616 -0.0574626 23.2013 0.0333532L20.2759 0.610198C19.1004 0.842027 18.0318 1.41305 17.1857 2.26149L16.1757 3.27441H12.7333C12.4831 2.64137 11.8655 2.19214 11.1446 2.19214C10.95 2.19214 10.763 2.2253 10.5886 2.28556C10.3861 1.56831 9.72619 1.041 8.9451 1.041C8.73879 1.041 8.54091 1.0778 8.35764 1.14515C8.12429 0.47943 7.48997 0.000555252 6.74562 0.000555252C6.0012 0.000555252 5.36694 0.479491 5.13359 1.14521C4.95032 1.07786 4.75244 1.04106 4.54613 1.04106C3.60438 1.04106 2.8382 1.80723 2.8382 2.74898V6.17191C2.45869 5.85775 1.94956 5.70668 1.43206 5.79786C0.969856 5.87934 0.569245 6.13742 0.30395 6.52457C0.0386539 6.91165 -0.057437 7.37846 0.0333189 7.83885L0.610289 10.7642C0.842119 11.9397 1.41315 13.0083 2.26154 13.8544L3.2744 14.8644V18.3067C2.64129 18.5569 2.192 19.1746 2.192 19.8955C2.192 20.0901 2.22516 20.277 2.28542 20.4515C1.56817 20.654 1.04085 21.3138 1.04085 22.095C1.04085 22.3014 1.07765 22.4992 1.145 22.6825C0.479217 22.9159 0.000399392 23.5502 0.000399392 24.2945C0.000399392 25.0389 0.479278 25.6732 1.145 25.9065C1.07765 26.0897 1.04085 26.2877 1.04085 26.494C1.04085 27.4357 1.80709 28.2019 2.74878 28.2019H6.17174C5.85758 28.5815 5.70644 29.0907 5.79768 29.608C5.87916 30.0702 6.13724 30.4708 6.52433 30.736C6.8163 30.9361 7.15362 31.04 7.49937 31.04C7.61195 31.04 7.7255 31.0289 7.83869 31.0067L10.7641 30.4298C11.9396 30.198 13.0082 29.627 13.8543 28.7785L14.8644 27.7656H18.3068C18.557 28.3987 19.1746 28.848 19.8955 28.848C20.0901 28.848 20.2771 28.8148 20.4515 28.7546C20.6541 29.4718 21.314 29.9991 22.095 29.9991C22.3013 29.9991 22.4992 29.9623 22.6825 29.8949C22.9158 30.5607 23.5501 31.0395 24.2945 31.0395C25.0389 31.0395 25.6732 30.5606 25.9065 29.8949C26.0898 29.9623 26.2877 29.9991 26.494 29.9991C27.4358 29.9991 28.2019 29.2328 28.2019 28.2912V24.8683C28.5815 25.1824 29.0905 25.3336 29.608 25.2423C30.0702 25.1609 30.4708 24.9028 30.7361 24.5157C31.0013 24.1286 31.0975 23.6617 31.0067 23.2013ZM12.8527 7.99187V6.33936V4.48685H16.4274C16.5885 4.48685 16.7429 4.42271 16.8567 4.30867L18.0443 3.1177C18.7196 2.44058 19.5723 1.9848 20.5106 1.79984L23.436 1.22299C23.5742 1.19583 23.7142 1.22457 23.8303 1.30417C23.9465 1.38377 24.0239 1.50399 24.0483 1.64264C24.0957 1.91139 23.9253 2.17274 23.6603 2.23773L22.4446 2.53582C22.0612 2.62979 21.8172 2.9825 21.8645 3.37444C21.9118 3.76638 22.2327 4.05089 22.6276 4.05089H28.2913C28.5646 4.05089 28.7868 4.2732 28.7868 4.54638C28.7868 4.79955 28.5959 5.00858 28.3505 5.03793L24.9951 5.04181C24.6604 5.04181 24.3889 5.31322 24.3889 5.64805C24.3889 5.98288 24.6604 6.2543 24.9951 6.2543L29.3318 6.25042C29.6051 6.25042 29.8273 6.47273 29.8273 6.74591C29.8273 7.01908 29.6051 7.24139 29.3318 7.24139H24.9951C24.6604 7.24139 24.3889 7.51281 24.3889 7.84764C24.3889 8.18247 24.6604 8.45389 24.9951 8.45389H28.3507C28.596 8.48335 28.7868 8.69238 28.7868 8.94543C28.7868 9.21861 28.5646 9.44092 28.2913 9.44092H24.9951C24.6604 9.44092 24.3889 9.71234 24.3889 10.0472C24.3889 10.382 24.6604 10.6534 24.9951 10.6534H27.1994C27.4447 10.6828 27.6357 10.8919 27.6357 11.145C27.6357 11.4182 27.4134 11.6404 27.1402 11.6404H21.0178C19.7352 11.6404 18.5301 11.1403 17.6244 10.2321L16.8568 9.46226C16.7431 9.34822 16.5886 9.28408 16.4275 9.28408H12.8527V7.99187ZM3.11762 12.9957C2.44044 12.3204 1.98472 11.4677 1.79981 10.5294L1.22291 7.60411C1.19562 7.46595 1.22448 7.3259 1.30408 7.20975C1.38368 7.09359 1.5039 7.01617 1.64255 6.99174C1.91161 6.94445 2.1726 7.11481 2.23759 7.3798L2.53562 8.59538C2.62953 8.9789 2.98249 9.22249 3.37419 9.17556C3.76619 9.12828 4.05071 8.80733 4.05071 8.41254V2.74886C4.05071 2.47568 4.27296 2.25337 4.5462 2.25337C4.79931 2.25337 5.00828 2.44422 5.03774 2.68951L5.04162 6.04502C5.04162 6.37985 5.3131 6.65127 5.64788 6.65127C5.98265 6.65127 6.25413 6.37985 6.25413 6.04502V2.74886C6.25413 2.71194 6.25255 2.67544 6.25025 2.63907V1.70835C6.25025 1.43518 6.4725 1.21293 6.74574 1.21293C7.01897 1.21293 7.24123 1.43518 7.24123 1.70835V2.63913C7.23892 2.67544 7.23735 2.712 7.23735 2.74892L7.24123 6.04508C7.24123 6.37991 7.51271 6.65133 7.84748 6.65133C8.18225 6.65133 8.45373 6.37991 8.45373 6.04508V2.68951C8.48319 2.44422 8.69223 2.25337 8.94528 2.25337C9.21852 2.25337 9.44077 2.47568 9.44077 2.74886C9.44077 2.74886 9.43834 5.69813 9.44077 5.7202V6.04508C9.44077 6.37991 9.71225 6.65133 10.047 6.65133C10.3818 6.65133 10.6533 6.37991 10.6533 6.04508V3.84065C10.6827 3.59536 10.8918 3.40451 11.1448 3.40451C11.4181 3.40451 11.6403 3.62682 11.6403 3.9V10.0223C11.6403 11.2863 11.1269 12.5231 10.232 13.4157L9.46217 14.1833C9.34807 14.297 9.28399 14.4515 9.28399 14.6126V18.1873H8.07155V16.5777C8.07155 16.2429 7.80007 15.9714 7.4653 15.9714C7.13053 15.9714 6.85905 16.2429 6.85905 16.5777V18.1873H4.48684V14.6126C4.48684 14.4515 4.4227 14.297 4.30867 14.1833L3.11762 12.9957ZM18.1875 26.553H14.6126V26.553C14.4516 26.553 14.2971 26.6172 14.1834 26.7312L12.9957 27.9221C12.3204 28.5994 11.4676 29.0551 10.5295 29.2399L7.60407 29.8168C7.46584 29.8442 7.32586 29.8153 7.2097 29.7357C7.09354 29.656 7.01613 29.5358 6.99169 29.3972C6.94428 29.1285 7.11476 28.8671 7.37969 28.8022L8.59553 28.5041C8.97893 28.4101 9.22288 28.0574 9.17547 27.6655C9.12819 27.2736 8.80723 26.9891 8.41244 26.9891H2.74884C2.4756 26.9891 2.25335 26.7669 2.25335 26.4936C2.25335 26.2404 2.44438 26.0313 2.68985 26.002L6.04509 25.9982C6.37986 25.9982 6.65134 25.7267 6.65134 25.392C6.65134 25.0572 6.37986 24.7857 6.04509 24.7857L1.70839 24.7895C1.43515 24.7895 1.2129 24.5673 1.2129 24.294C1.2129 24.0209 1.43515 23.7986 1.70839 23.7986H6.04509C6.37986 23.7986 6.65134 23.5271 6.65134 23.1924C6.65134 22.8576 6.37986 22.5861 6.04509 22.5861H2.68985C2.44438 22.5568 2.25335 22.3477 2.25335 22.0945C2.25335 21.8213 2.4756 21.5991 2.74884 21.5991H6.04509C6.37986 21.5991 6.65134 21.3276 6.65134 20.9928C6.65134 20.6581 6.37986 20.3866 6.04509 20.3866H3.841C3.59559 20.3573 3.40456 20.1482 3.40456 19.895C3.40456 19.6218 3.62682 19.3995 3.89999 19.3995H10.0223C11.3049 19.3995 12.51 19.8997 13.4157 20.8079L14.1834 21.5777C14.2971 21.6918 14.4516 21.7559 14.6126 21.7559H18.1875V26.553ZM18.206 20.5438H14.8642L14.2743 19.9522C13.2517 18.9267 11.9246 18.3166 10.4963 18.2059V14.8642L11.0879 14.2742C12.0972 13.2677 12.7189 11.9118 12.8332 10.4962H16.1759L16.7658 11.0878C17.7884 12.1133 19.1156 12.7233 20.5439 12.834V16.1758L19.9523 16.7658C18.9268 17.7882 18.3167 19.1155 18.206 20.5438ZM29.7359 23.8301C29.6563 23.9463 29.5361 24.0237 29.3974 24.0482C29.1284 24.0959 28.8673 23.9251 28.8024 23.6601L28.5044 22.4444C28.4103 22.0609 28.057 21.8173 27.6657 21.8644C27.2737 21.9117 26.9893 22.2326 26.9893 22.6274V28.2911C26.9893 28.5643 26.767 28.7866 26.4938 28.7866C26.2406 28.7866 26.0315 28.5955 26.0022 28.3501L25.9984 24.9949C25.9984 24.6602 25.7269 24.3887 25.3922 24.3887C25.0574 24.3887 24.7859 24.6602 24.7859 24.9949L24.7897 29.3317C24.7897 29.6048 24.5675 29.8271 24.2942 29.8271C24.0211 29.8271 23.7988 29.6048 23.7988 29.3317V24.9949C23.7988 24.6602 23.5273 24.3887 23.1926 24.3887C22.8578 24.3887 22.5863 24.6602 22.5863 24.9949V28.3501C22.557 28.5955 22.3479 28.7866 22.0947 28.7866C21.8215 28.7866 21.5992 28.5643 21.5992 28.2911V24.9949C21.5992 24.6602 21.3277 24.3887 20.993 24.3887C20.6582 24.3887 20.3867 24.6602 20.3867 24.9949V27.1994C20.3572 27.4446 20.1482 27.6355 19.8952 27.6355C19.6219 27.6355 19.3997 27.4132 19.3997 27.14V24.7008V23.0483V21.0177C19.3997 19.7352 19.8999 18.53 20.808 17.6243L21.5779 16.8567C21.692 16.7429 21.756 16.5885 21.756 16.4274V12.8526H23.048H24.0944V14.6915C24.0944 15.0263 24.3658 15.2978 24.7006 15.2978C25.0354 15.2978 25.3069 15.0263 25.3069 14.6915V12.8526H26.5529V16.4274C26.5529 16.5885 26.6171 16.7429 26.7311 16.8567L27.922 18.0443C28.5993 18.7196 29.055 19.5723 29.2399 20.5106L29.8168 23.4359C29.8443 23.574 29.8156 23.714 29.7359 23.8301Z" fill="#323232"/>
</svg>
