<svg width="32" height="32" viewBox="0 0 32 32" fill="none" xmlns="http://www.w3.org/2000/svg">
<path d="M31.0625 24.5V16.0625H22.625" stroke="#FFDC00" stroke-width="1.5" stroke-linecap="round" stroke-linejoin="round"/>
<path d="M31.0625 16.0625L21.1387 25.9863C20.7871 26.3381 20.31 26.5359 19.8125 26.5359C19.315 26.5359 18.8379 26.3381 18.4862 25.9863L14.5762 22.0762C14.2246 21.7244 13.7475 21.5267 13.25 21.5267C12.7525 21.5267 12.2754 21.7244 11.9237 22.0762L2.93747 31.0625" stroke="#FFDC00" stroke-width="1.5" stroke-linecap="round" stroke-linejoin="round"/>
<path fill-rule="evenodd" clip-rule="evenodd" d="M10.4375 16.0625L4.045 9.39372C2.89358 8.243 2.60851 6.48422 3.3375 5.02872V5.02872C3.88108 3.94144 4.91423 3.18179 6.11412 2.98714C7.31402 2.79248 8.53433 3.18655 9.39375 4.04622L10.4375 5.08997L11.4813 4.04622C12.3409 3.18656 13.5614 2.79251 14.7615 2.98716C15.9615 3.1818 16.9949 3.94141 17.5388 5.02872V5.02872C18.2666 6.4846 17.9811 8.24292 16.83 9.39372L10.4375 16.0625Z" stroke="#FFDC00" stroke-width="1.5" stroke-linecap="round" stroke-linejoin="round"/>
<path d="M29.0625 22.5V14.0625H20.625" stroke="black" stroke-width="1.5" stroke-linecap="round" stroke-linejoin="round"/>
<path d="M29.0625 14.0625L19.1387 23.9863C18.7871 24.3381 18.31 24.5359 17.8125 24.5359C17.315 24.5359 16.8379 24.3381 16.4862 23.9863L12.5762 20.0762C12.2246 19.7244 11.7475 19.5267 11.25 19.5267C10.7525 19.5267 10.2754 19.7244 9.92372 20.0762L0.937469 29.0625" stroke="black" stroke-width="1.5" stroke-linecap="round" stroke-linejoin="round"/>
<path fill-rule="evenodd" clip-rule="evenodd" d="M8.4375 14.0625L2.045 7.39372C0.893585 6.243 0.608514 4.48422 1.3375 3.02872V3.02872C1.88108 1.94144 2.91423 1.18179 4.11412 0.987136C5.31402 0.792478 6.53433 1.18655 7.39375 2.04622L8.4375 3.08997L9.48125 2.04622C10.3409 1.18656 11.5614 0.792515 12.7615 0.987159C13.9615 1.1818 14.9949 1.94141 15.5388 3.02872V3.02872C16.2666 4.4846 15.9811 6.24292 14.83 7.39372L8.4375 14.0625Z" stroke="black" stroke-width="1.5" stroke-linecap="round" stroke-linejoin="round"/>
</svg>
