<svg width="33" height="32" viewBox="0 0 33 32" fill="none" xmlns="http://www.w3.org/2000/svg">
<path d="M7.6925 19.4037V29.7162H15.1925V22.2162C15.1925 21.1807 16.032 20.3412 17.0675 20.3412H18.9425C19.978 20.3412 20.8175 21.1807 20.8175 22.2162V29.7162H28.3175V19.4037" stroke="#FFDC00" stroke-width="1.5" stroke-linecap="round" stroke-linejoin="round"/>
<path d="M3.9425 17.5288L16.68 4.7925C17.4122 4.06054 18.5991 4.06054 19.3313 4.7925L32.0675 17.5288" stroke="#FFDC00" stroke-width="1.5" stroke-linecap="round" stroke-linejoin="round"/>
<path d="M23.63 9.09125V7.21625H28.3175V13.7787" stroke="#FFDC00" stroke-width="1.5" stroke-linecap="round" stroke-linejoin="round"/>
<path d="M4.6925 17.4037V27.7162H12.1925V20.2162C12.1925 19.1807 13.032 18.3412 14.0675 18.3412H15.9425C16.978 18.3412 17.8175 19.1807 17.8175 20.2162V27.7162H25.3175V17.4037" stroke="black" stroke-width="1.5" stroke-linecap="round" stroke-linejoin="round"/>
<path d="M0.942505 15.5288L13.68 2.7925C14.4122 2.06054 15.5991 2.06054 16.3313 2.7925L29.0675 15.5288" stroke="black" stroke-width="1.5" stroke-linecap="round" stroke-linejoin="round"/>
<path d="M20.63 7.09125V5.21625H25.3175V11.7787" stroke="black" stroke-width="1.5" stroke-linecap="round" stroke-linejoin="round"/>
</svg>
