<svg width="25" height="25" viewBox="0 0 25 25" fill="none" xmlns="http://www.w3.org/2000/svg">
<circle cx="12.5" cy="12.5" r="12.5" fill="black"/>
<path d="M12.9803 7.35297H12.7576C12.2092 7.35297 11.7647 7.79748 11.7647 8.34582V13.0915C11.7647 13.6398 12.2092 14.0843 12.7576 14.0843H12.9803C13.5286 14.0843 13.9731 13.6398 13.9731 13.0915V8.34582C13.9731 7.79748 13.5286 7.35297 12.9803 7.35297Z" fill="white"/>
<path d="M12.8691 17.8481C13.4789 17.8481 13.9733 17.3538 13.9733 16.7439C13.9733 16.1341 13.4789 15.6397 12.8691 15.6397C12.2593 15.6397 11.7649 16.1341 11.7649 16.7439C11.7649 17.3538 12.2593 17.8481 12.8691 17.8481Z" fill="white"/>
</svg>
