<svg width="32" height="31" viewBox="0 0 32 31" fill="none" xmlns="http://www.w3.org/2000/svg">
<path fill-rule="evenodd" clip-rule="evenodd" d="M17 9.62562C18.8122 9.62562 20.2812 8.21532 20.2812 6.47562C20.2812 4.73593 18.8122 3.32562 17 3.32562C15.1878 3.32562 13.7188 4.73593 13.7188 6.47562C13.7188 8.21532 15.1878 9.62562 17 9.62562Z" stroke="#FFDC00" stroke-width="1.5" stroke-linecap="round" stroke-linejoin="round"/>
<path fill-rule="evenodd" clip-rule="evenodd" d="M18.4863 22.1476L21.0875 24.64L19.25 26.992C18.6287 27.7873 18.7966 28.9156 19.625 29.512C20.4534 30.1085 21.6287 29.9473 22.25 29.152L24.0838 26.8C25.1988 25.3657 25.0521 23.3639 23.7388 22.0936L21.6875 20.1256V15.3556C21.8005 15.4411 21.9082 15.5329 22.01 15.6304L24.1113 17.6476C24.8434 18.3508 26.0307 18.3511 26.7631 17.6482C27.4956 16.9454 27.4959 15.8056 26.7638 15.1024L24.6613 13.0852C23.2524 11.7388 21.3468 10.9806 19.3588 10.9756H14.6413C12.6532 10.9806 10.7477 11.7388 9.33876 13.0852L7.23626 15.1024C6.50413 15.8056 6.50441 16.9454 7.23688 17.6482C7.96935 18.3511 9.15663 18.3508 9.88876 17.6476L11.99 15.6304C12.0918 15.5329 12.1995 15.4411 12.3125 15.3556V20.1304L10.2613 22.0984C8.94859 23.3677 8.80082 25.368 9.91376 26.8024L11.75 29.1544C12.3713 29.9497 13.5466 30.1109 14.375 29.5144C15.2034 28.918 15.3713 27.7897 14.75 26.9944L12.9125 24.64L15.5138 22.144L18.4863 22.1476Z" stroke="#FFDC00" stroke-width="1.5" stroke-linecap="round" stroke-linejoin="round"/>
<path fill-rule="evenodd" clip-rule="evenodd" d="M12.3125 18.1756L15.5138 22.1476H18.4863L21.6875 18.1756V17.2756C18.8023 15.6135 15.1977 15.6135 12.3125 17.2756L12.3125 18.1756Z" stroke="#FFDC00" stroke-width="1.5" stroke-linecap="round" stroke-linejoin="round"/>
<path fill-rule="evenodd" clip-rule="evenodd" d="M15 8.62562C16.8122 8.62562 18.2812 7.21532 18.2812 5.47562C18.2812 3.73593 16.8122 2.32562 15 2.32562C13.1878 2.32562 11.7188 3.73593 11.7188 5.47562C11.7188 7.21532 13.1878 8.62562 15 8.62562Z" stroke="black" stroke-width="1.5" stroke-linecap="round" stroke-linejoin="round"/>
<path fill-rule="evenodd" clip-rule="evenodd" d="M16.4863 21.1476L19.0875 23.64L17.25 25.992C16.6287 26.7873 16.7966 27.9156 17.625 28.512C18.4534 29.1085 19.6287 28.9473 20.25 28.152L22.0838 25.8C23.1988 24.3657 23.0521 22.3639 21.7388 21.0936L19.6875 19.1256V14.3556C19.8005 14.4411 19.9082 14.5329 20.01 14.6304L22.1113 16.6476C22.8434 17.3508 24.0307 17.3511 24.7631 16.6482C25.4956 15.9454 25.4959 14.8056 24.7638 14.1024L22.6613 12.0852C21.2524 10.7388 19.3468 9.98064 17.3588 9.97565H12.6413C10.6532 9.98064 8.74765 10.7388 7.33876 12.0852L5.23626 14.1024C4.50413 14.8056 4.50441 15.9454 5.23688 16.6482C5.96935 17.3511 7.15663 17.3508 7.88876 16.6476L9.99001 14.6304C10.0918 14.5329 10.1995 14.4411 10.3125 14.3556V19.1304L8.26126 21.0984C6.94859 22.3677 6.80082 24.368 7.91376 25.8024L9.75001 28.1544C10.3713 28.9497 11.5466 29.1109 12.375 28.5144C13.2034 27.918 13.3713 26.7897 12.75 25.9944L10.9125 23.64L13.5138 21.144L16.4863 21.1476Z" stroke="black" stroke-width="1.5" stroke-linecap="round" stroke-linejoin="round"/>
<path fill-rule="evenodd" clip-rule="evenodd" d="M10.3125 17.1756L13.5138 21.1476H16.4863L19.6875 17.1756V16.2756C16.8023 14.6135 13.1977 14.6135 10.3125 16.2756L10.3125 17.1756Z" stroke="black" stroke-width="1.5" stroke-linecap="round" stroke-linejoin="round"/>
</svg>
