<svg width="33" height="32" viewBox="0 0 33 32" fill="none" xmlns="http://www.w3.org/2000/svg">
<path d="M5.8125 27.1512V29.1887C5.8303 30.2413 6.69743 31.0805 7.75 31.0637H28.25C29.3026 31.0805 30.1697 30.2413 30.1875 29.1887V27.1512" stroke="#FFDC00" stroke-width="1.5" stroke-linecap="round" stroke-linejoin="round"/>
<path d="M5.81251 12.485C4.55436 12.9262 3.78031 14.1917 3.96062 15.5127C4.14094 16.8337 5.22583 17.8455 6.55619 17.9333C7.88655 18.0211 9.09507 17.1608 9.44751 15.875C11.6753 18.2942 15.3753 18.6279 18 16.6462C20.6234 18.6291 24.3233 18.2976 26.5525 15.88C26.9073 17.1642 28.1163 18.0219 29.4456 17.9326C30.7749 17.8432 31.8582 16.8315 32.038 15.5113C32.2178 14.1912 31.4445 12.9266 30.1875 12.485" stroke="#FFDC00" stroke-width="1.5" stroke-linecap="round" stroke-linejoin="round"/>
<path fill-rule="evenodd" clip-rule="evenodd" d="M20.8125 2.93872H15.1875C10.0098 2.93872 5.8125 7.13605 5.8125 12.3137V12.3137V12.485H30.1875V12.3137V12.3137C30.1875 7.13605 25.9902 2.93872 20.8125 2.93872Z" stroke="#FFDC00" stroke-width="1.5" stroke-linecap="round" stroke-linejoin="round"/>
<path d="M18.9375 27.3137H6.75C6.00386 27.3137 5.2883 27.0172 4.76082 26.4895C4.23334 25.9618 3.93717 25.2461 3.9375 24.5V24.5C3.93819 22.9472 5.19719 21.6887 6.75 21.6887H29.25C30.8028 21.6887 32.0618 22.9472 32.0625 24.5V24.5C32.0628 25.2461 31.7667 25.9618 31.2392 26.4895C30.7117 27.0172 29.9961 27.3137 29.25 27.3137H28.3125" stroke="#FFDC00" stroke-width="1.5" stroke-linecap="round" stroke-linejoin="round"/>
<path d="M31.3463 17C31.8083 17.5151 32.0634 18.183 32.0625 18.875V18.875C32.0628 19.6211 31.7667 20.3368 31.2392 20.8645C30.7117 21.3923 29.9961 21.6887 29.25 21.6887H6.75C6.00386 21.6887 5.2883 21.3923 4.76082 20.8645C4.23334 20.3368 3.93717 19.6211 3.9375 18.875V18.875C3.93658 18.183 4.1917 17.5151 4.65375 17" stroke="#FFDC00" stroke-width="1.5" stroke-linecap="round" stroke-linejoin="round"/>
<path d="M15.1875 21.6887L24.5625 27.3137L28.3125 21.6887" stroke="#FFDC00" stroke-width="1.5" stroke-linecap="round" stroke-linejoin="round"/>
<path d="M11.9063 7.625C12.1651 7.625 12.375 7.83487 12.375 8.09375C12.375 8.35264 12.1651 8.5625 11.9063 8.5625C11.6474 8.5625 11.4375 8.35264 11.4375 8.09375C11.4372 7.96933 11.4864 7.84991 11.5744 7.76193C11.6624 7.67395 11.7818 7.62467 11.9063 7.625" stroke="#FFDC00" stroke-width="1.5" stroke-linecap="round" stroke-linejoin="round"/>
<path d="M17.5313 6.68872C17.7209 6.68872 17.8918 6.80293 17.9643 6.97809C18.0369 7.15325 17.9968 7.35487 17.8627 7.48893C17.7287 7.62299 17.527 7.66309 17.3519 7.59054C17.1767 7.51799 17.0625 7.34706 17.0625 7.15747C17.0622 7.03305 17.1115 6.91363 17.1994 6.82565C17.2874 6.73767 17.4068 6.68839 17.5313 6.68872" stroke="#FFDC00" stroke-width="1.5" stroke-linecap="round" stroke-linejoin="round"/>
<path d="M23.1563 7.625C23.4152 7.625 23.625 7.83487 23.625 8.09375C23.625 8.35264 23.4152 8.5625 23.1563 8.5625C22.8974 8.5625 22.6875 8.35264 22.6875 8.09375C22.6872 7.96933 22.7365 7.84991 22.8244 7.76193C22.9124 7.67395 23.0318 7.62467 23.1563 7.625" stroke="#FFDC00" stroke-width="1.5" stroke-linecap="round" stroke-linejoin="round"/>
<path d="M2.8125 25.1512V27.1887C2.8303 28.2413 3.69743 29.0805 4.75 29.0637H25.25C26.3026 29.0805 27.1697 28.2413 27.1875 27.1887V25.1512" stroke="black" stroke-width="1.5" stroke-linecap="round" stroke-linejoin="round"/>
<path d="M2.81251 10.485C1.55436 10.9262 0.78031 12.1917 0.960624 13.5127C1.14094 14.8337 2.22583 15.8455 3.55619 15.9333C4.88655 16.0211 6.09507 15.1608 6.44751 13.875C8.67532 16.2942 12.3753 16.6279 15 14.6462C17.6234 16.6291 21.3233 16.2976 23.5525 13.88C23.9073 15.1642 25.1163 16.0219 26.4456 15.9326C27.7749 15.8432 28.8582 14.8315 29.038 13.5113C29.2178 12.1912 28.4445 10.9266 27.1875 10.485" stroke="black" stroke-width="1.5" stroke-linecap="round" stroke-linejoin="round"/>
<path fill-rule="evenodd" clip-rule="evenodd" d="M17.8125 0.938721H12.1875C7.00983 0.938721 2.8125 5.13605 2.8125 10.3137V10.3137V10.485H27.1875V10.3137V10.3137C27.1875 5.13605 22.9902 0.938721 17.8125 0.938721Z" stroke="black" stroke-width="1.5" stroke-linecap="round" stroke-linejoin="round"/>
<path d="M15.9375 25.3137H3.75C3.00386 25.3137 2.2883 25.0172 1.76082 24.4895C1.23334 23.9618 0.937169 23.2461 0.9375 22.5V22.5C0.93819 20.9472 2.19719 19.6887 3.75 19.6887H26.25C27.8028 19.6887 29.0618 20.9472 29.0625 22.5V22.5C29.0628 23.2461 28.7667 23.9618 28.2392 24.4895C27.7117 25.0172 26.9961 25.3137 26.25 25.3137H25.3125" stroke="black" stroke-width="1.5" stroke-linecap="round" stroke-linejoin="round"/>
<path d="M28.3463 15C28.8083 15.5151 29.0634 16.183 29.0625 16.875V16.875C29.0628 17.6211 28.7667 18.3368 28.2392 18.8645C27.7117 19.3923 26.9961 19.6887 26.25 19.6887H3.75C3.00386 19.6887 2.2883 19.3923 1.76082 18.8645C1.23334 18.3368 0.937171 17.6211 0.937503 16.875V16.875C0.936577 16.183 1.1917 15.5151 1.65375 15" stroke="black" stroke-width="1.5" stroke-linecap="round" stroke-linejoin="round"/>
<path d="M12.1875 19.6887L21.5625 25.3137L25.3125 19.6887" stroke="black" stroke-width="1.5" stroke-linecap="round" stroke-linejoin="round"/>
<path d="M8.90625 5.625C9.16514 5.625 9.375 5.83487 9.375 6.09375C9.375 6.35264 9.16514 6.5625 8.90625 6.5625C8.64737 6.5625 8.4375 6.35264 8.4375 6.09375C8.43717 5.96933 8.48645 5.84991 8.57443 5.76193C8.66241 5.67395 8.78183 5.62467 8.90625 5.625" stroke="black" stroke-width="1.5" stroke-linecap="round" stroke-linejoin="round"/>
<path d="M14.5313 4.68872C14.7209 4.68872 14.8918 4.80293 14.9643 4.97809C15.0369 5.15325 14.9968 5.35487 14.8627 5.48893C14.7287 5.62299 14.527 5.66309 14.3519 5.59054C14.1767 5.51799 14.0625 5.34706 14.0625 5.15747C14.0622 5.03305 14.1115 4.91363 14.1994 4.82565C14.2874 4.73767 14.4068 4.68839 14.5313 4.68872" stroke="black" stroke-width="1.5" stroke-linecap="round" stroke-linejoin="round"/>
<path d="M20.1563 5.625C20.4152 5.625 20.625 5.83487 20.625 6.09375C20.625 6.35264 20.4152 6.5625 20.1563 6.5625C19.8974 6.5625 19.6875 6.35264 19.6875 6.09375C19.6872 5.96933 19.7365 5.84991 19.8244 5.76193C19.9124 5.67395 20.0318 5.62467 20.1563 5.625" stroke="black" stroke-width="1.5" stroke-linecap="round" stroke-linejoin="round"/>
</svg>
