<svg width="33" height="32" viewBox="0 0 33 32" fill="none" xmlns="http://www.w3.org/2000/svg">
<path d="M14.7188 10.4375C14.7188 6.29536 18.0766 2.9375 22.2188 2.9375C26.3609 2.9375 29.7188 6.29536 29.7188 10.4375V31.0625" stroke="#FFDC00" stroke-width="1.5" stroke-linecap="round" stroke-linejoin="round"/>
<path fill-rule="evenodd" clip-rule="evenodd" d="M9.09375 16.0625C9.09375 12.9559 11.6121 10.4375 14.7188 10.4375C17.8254 10.4375 20.3437 12.9559 20.3438 16.0625H9.09375Z" stroke="#FFDC00" stroke-width="1.5" stroke-linecap="round" stroke-linejoin="round"/>
<path d="M10.0312 19.8125L9.09375 22.625" stroke="#FFDC00" stroke-width="1.5" stroke-linecap="round" stroke-linejoin="round"/>
<path d="M7.21875 28.25L6.28125 31.0625" stroke="#FFDC00" stroke-width="1.5" stroke-linecap="round" stroke-linejoin="round"/>
<path d="M19.4062 19.8125L20.3438 22.625" stroke="#FFDC00" stroke-width="1.5" stroke-linecap="round" stroke-linejoin="round"/>
<path d="M22.2188 28.25L23.1562 31.0625" stroke="#FFDC00" stroke-width="1.5" stroke-linecap="round" stroke-linejoin="round"/>
<path d="M14.7188 19.8125V22.625" stroke="#FFDC00" stroke-width="1.5" stroke-linecap="round" stroke-linejoin="round"/>
<path d="M14.7188 31.0625V28.25" stroke="#FFDC00" stroke-width="1.5" stroke-linecap="round" stroke-linejoin="round"/>
<path d="M11.7188 8.4375C11.7188 4.29536 15.0766 0.9375 19.2188 0.9375C23.3609 0.9375 26.7188 4.29536 26.7188 8.4375V29.0625" stroke="#323232" stroke-width="1.5" stroke-linecap="round" stroke-linejoin="round"/>
<path fill-rule="evenodd" clip-rule="evenodd" d="M6.09375 14.0625C6.09375 10.9559 8.61215 8.4375 11.7188 8.4375C14.8254 8.4375 17.3437 10.9559 17.3438 14.0625H6.09375Z" stroke="#323232" stroke-width="1.5" stroke-linecap="round" stroke-linejoin="round"/>
<path d="M7.03125 17.8125L6.09375 20.625" stroke="#323232" stroke-width="1.5" stroke-linecap="round" stroke-linejoin="round"/>
<path d="M4.21875 26.25L3.28125 29.0625" stroke="#323232" stroke-width="1.5" stroke-linecap="round" stroke-linejoin="round"/>
<path d="M16.4062 17.8125L17.3438 20.625" stroke="#323232" stroke-width="1.5" stroke-linecap="round" stroke-linejoin="round"/>
<path d="M19.2188 26.25L20.1562 29.0625" stroke="#323232" stroke-width="1.5" stroke-linecap="round" stroke-linejoin="round"/>
<path d="M11.7188 17.8125V20.625" stroke="#323232" stroke-width="1.5" stroke-linecap="round" stroke-linejoin="round"/>
<path d="M11.7188 29.0625V26.25" stroke="#323232" stroke-width="1.5" stroke-linecap="round" stroke-linejoin="round"/>
</svg>
