<svg width="24" height="24" viewBox="0 0 24 24" fill="none" xmlns="http://www.w3.org/2000/svg">
<g clip-path="url(#clip0_57_1077)">
<path d="M12 2C6.47715 2 2 6.47715 2 12C2 17.5228 6.47715 22 12 22C17.5228 22 22 17.5228 22 12C22 9.34784 20.9464 6.8043 19.0711 4.92893C17.1957 3.05357 14.6522 2 12 2ZM12 20C7.58172 20 4 16.4183 4 12C4 7.58172 7.58172 4 12 4C16.4183 4 20 7.58172 20 12C20 14.1217 19.1571 16.1566 17.6569 17.6569C16.1566 19.1571 14.1217 20 12 20ZM12.5 16H11.5C11.2239 16 11 16.2239 11 16.5V17.5C11 17.7761 11.2239 18 11.5 18H12.5C12.7761 18 13 17.7761 13 17.5V16.5C13 16.2239 12.7761 16 12.5 16ZM15.88 9C15.88 7.40942 14.5906 6.12 13 6.12H11C9.40942 6.12 8.12 7.40942 8.12 9V9.5C8.12 9.77614 8.34386 10 8.62 10H9.38C9.65614 10 9.88 9.77614 9.88 9.5V9C9.88 8.70296 9.998 8.41808 10.208 8.20804C10.4181 7.998 10.703 7.88 11 7.88H13C13.6186 7.88 14.12 8.38144 14.12 9V9.56C14.121 10.0423 13.8157 10.4721 13.36 10.63L12.41 10.94C11.6418 11.1939 11.1222 11.9109 11.12 12.72V13.5C11.12 13.7761 11.3439 14 11.62 14H12.38C12.6561 14 12.88 13.7761 12.88 13.5V12.72C12.8848 12.6558 12.9358 12.6048 13 12.6L13.95 12.29C15.1355 11.9063 15.9416 10.806 15.95 9.56L15.88 9Z" fill="#333333"/>
</g>
<defs>
<clipPath id="clip0_57_1077">
<rect width="24" height="24" fill="white"/>
</clipPath>
</defs>
</svg>
