<svg width="24" height="24" viewBox="0 0 24 24" fill="none" xmlns="http://www.w3.org/2000/svg">
<path d="M11.6249 22.2496C6.31809 22.2496 2 17.9316 2 12.6249C2 7.31809 6.31809 3 11.6249 3C13.4702 3 15.2656 3.52582 16.8169 4.52155C17.1215 4.71766 17.2107 5.12364 17.0146 5.42901C16.8179 5.73438 16.4127 5.82265 16.1073 5.62671C14.7686 4.76652 13.2182 4.31247 11.6249 4.31247C7.04162 4.31247 3.31247 8.04162 3.31247 12.6249C3.31247 17.208 7.04162 20.9371 11.6249 20.9371C16.208 20.9371 19.9371 17.208 19.9371 12.6249C19.9371 12.3509 19.924 12.0797 19.8986 11.8129C19.8637 11.4515 20.1279 11.1312 20.4884 11.0963C20.8506 11.0629 21.1699 11.3255 21.205 11.686C21.2347 11.9949 21.2496 12.3081 21.2496 12.6249C21.2496 17.9316 16.9316 22.2496 11.6249 22.2496Z" fill="black" stroke="black" stroke-width="0.5"/>
<path d="M12.7179 14.8125C12.5499 14.8125 12.3819 14.7486 12.2542 14.6201L8.31677 10.6827C8.06043 10.4262 8.06043 10.0106 8.31677 9.75423C8.57311 9.49789 8.98871 9.49789 9.24505 9.75423L12.7188 13.228L21.8789 4.06775C22.1354 3.8114 22.551 3.8114 22.8073 4.06775C23.0637 4.32409 23.0637 4.73968 22.8073 4.99603L13.1825 14.6209C13.0538 14.7486 12.8859 14.8125 12.7179 14.8125Z" fill="black" stroke="black" stroke-width="0.5"/>
</svg>
