<svg width="24" height="24" viewBox="0 0 24 24" fill="none" xmlns="http://www.w3.org/2000/svg">
<path fill-rule="evenodd" clip-rule="evenodd" d="M6 3H18C19.6569 3 21 4.34315 21 6V18C21 19.6569 19.6569 21 18 21H6C4.34315 21 3 19.6569 3 18V6C3 4.34315 4.34315 3 6 3ZM6 4.33L5.85591 4.33613C5.00105 4.40919 4.33 5.12623 4.33 6V18C4.33 18.9223 5.07768 19.67 6 19.67H6.66667L13.6659 10.4757C13.7548 10.3589 13.8532 10.2497 13.96 10.1491C15.0319 9.14045 16.7185 9.19172 17.7272 10.2636L19.67 12.3282V6C19.67 5.07768 18.9223 4.33 18 4.33H6ZM19.67 14.269L16.7586 11.175C16.2533 10.6381 15.4084 10.6124 14.8715 11.1177C14.8179 11.1681 14.7687 11.2228 14.7241 11.2813L8.33819 19.67H18C18.9223 19.67 19.67 18.9223 19.67 18V14.269ZM10 8.5C10 9.32843 9.32843 10 8.5 10C7.67157 10 7 9.32843 7 8.5C7 7.67157 7.67157 7 8.5 7C9.32843 7 10 7.67157 10 8.5ZM8.5 9C8.77614 9 9 8.77614 9 8.5C9 8.22386 8.77614 8 8.5 8C8.22386 8 8 8.22386 8 8.5C8 8.77614 8.22386 9 8.5 9Z" fill="#323232"/>
</svg>
